<?xml version="1.0" encoding="UTF-8" standalone="no"?>
<!DOCTYPE svg PUBLIC "-//W3C//DTD SVG 1.1//EN" "http://www.w3.org/Graphics/SVG/1.1/DTD/svg11.dtd">
<!-- Generated by graphviz version 2.40.1 (20161225.0304)
 -->
<!-- Title: Database Pages: 1 -->
<svg width="412pt" height="870pt" viewBox="0.00 0.00 412.19 870.00" xmlns="http://www.w3.org/2000/svg" xmlns:xlink="http://www.w3.org/1999/xlink">
<g id="graph0" class="graph" transform="scale(1 1) rotate(0) translate(4 866)">
<title>Database</title>
<polygon fill="#ffffff" stroke="transparent" points="-4,4 -4,-866 408.1886,-866 408.1886,4 -4,4"/>
<!-- node_1 -->
<g id="node1" class="node">
<title>node_1</title>
<polygon fill="none" stroke="#000000" points="94.1092,-695.9 94.1092,-795.1 148.1092,-795.1 148.1092,-695.9 94.1092,-695.9"/>
<text text-anchor="middle" x="121.1092" y="-778.5" font-family="Times,serif" font-size="14.00" fill="#000000">1</text>
<polyline fill="none" stroke="#000000" points="94.1092,-770.3 148.1092,-770.3 "/>
<text text-anchor="middle" x="121.1092" y="-753.7" font-family="Times,serif" font-size="14.00" fill="#000000">3</text>
<polyline fill="none" stroke="#000000" points="94.1092,-745.5 148.1092,-745.5 "/>
<text text-anchor="middle" x="121.1092" y="-728.9" font-family="Times,serif" font-size="14.00" fill="#000000">4</text>
<polyline fill="none" stroke="#000000" points="94.1092,-720.7 148.1092,-720.7 "/>
<text text-anchor="middle" x="121.1092" y="-704.1" font-family="Times,serif" font-size="14.00" fill="#000000">5</text>
</g>
<!-- value_1_v_0 -->
<g id="node2" class="node">
<title>value_1_v_0</title>
<polygon fill="none" stroke="#000000" points="257.5609,-825.5 257.5609,-861.5 330.7369,-861.5 330.7369,-825.5 257.5609,-825.5"/>
<text text-anchor="middle" x="294.1489" y="-839.4" font-family="Times,serif" font-size="14.00" fill="#000000">[_\\\\\\\\\...</text>
</g>
<!-- node_1&#45;&gt;value_1_v_0 -->
<g id="edge1" class="edge">
<title>node_1:v_0-&gt;value_1_v_0</title>
<path fill="none" stroke="#000000" d="M148.1092,-782.5C170.1171,-782.5 164.782,-805.9735 184.1092,-816.5 203.5423,-827.0842 227.145,-833.58 247.5002,-837.5368"/>
<polygon fill="#000000" stroke="#000000" points="247.0423,-841.0104 257.5034,-839.3323 248.2791,-834.1206 247.0423,-841.0104"/>
</g>
<!-- value_1_v_1 -->
<g id="node3" class="node">
<title>value_1_v_1</title>
<polygon fill="none" stroke="#000000" points="257.5609,-770.5 257.5609,-806.5 330.7369,-806.5 330.7369,-770.5 257.5609,-770.5"/>
<text text-anchor="middle" x="294.1489" y="-784.4" font-family="Times,serif" font-size="14.00" fill="#000000">[_\\\\\\\\\...</text>
</g>
<!-- node_1&#45;&gt;value_1_v_1 -->
<g id="edge2" class="edge">
<title>node_1:v_1-&gt;value_1_v_1</title>
<path fill="none" stroke="#000000" d="M148.1092,-757.5C167.0995,-757.5 212.1987,-767.657 247.2952,-776.3432"/>
<polygon fill="#000000" stroke="#000000" points="246.811,-779.8299 257.3615,-778.8613 248.5098,-773.0391 246.811,-779.8299"/>
</g>
<!-- value_1_v_2 -->
<g id="node4" class="node">
<title>value_1_v_2</title>
<polygon fill="none" stroke="#000000" points="184.1092,-715.5 184.1092,-751.5 404.1886,-751.5 404.1886,-715.5 184.1092,-715.5"/>
<text text-anchor="middle" x="294.1489" y="-729.4" font-family="Times,serif" font-size="14.00" fill="#000000">[_AAAAAAAAAAAAAAAAAA...</text>
</g>
<!-- node_1&#45;&gt;value_1_v_2 -->
<g id="edge3" class="edge">
<title>node_1:v_2-&gt;value_1_v_2</title>
<path fill="none" stroke="#000000" d="M148.1092,-733.5C156.4919,-733.5 165.1453,-733.5 173.8596,-733.5"/>
<polygon fill="#000000" stroke="#000000" points="174.1048,-737.0001 184.1048,-733.5 174.1048,-730.0001 174.1048,-737.0001"/>
</g>
<!-- value_1_v_3 -->
<g id="node5" class="node">
<title>value_1_v_3</title>
<polygon fill="none" stroke="#000000" points="219.1372,-660.5 219.1372,-696.5 369.1606,-696.5 369.1606,-660.5 219.1372,-660.5"/>
<text text-anchor="middle" x="294.1489" y="-674.4" font-family="Times,serif" font-size="14.00" fill="#000000">[_aaaaaaaaaaaaaaaaaa...</text>
</g>
<!-- node_1&#45;&gt;value_1_v_3 -->
<g id="edge4" class="edge">
<title>node_1:v_3-&gt;value_1_v_3</title>
<path fill="none" stroke="#000000" d="M148.1092,-708.5C173.1354,-708.5 200.0895,-704.2206 223.9454,-698.8944"/>
<polygon fill="#000000" stroke="#000000" points="225.0216,-702.2373 233.965,-696.557 223.4313,-695.4204 225.0216,-702.2373"/>
</g>
<!-- node_2 -->
<g id="node6" class="node">
<title>node_2</title>
<polygon fill="none" stroke="#000000" points="94.1092,-66.9 94.1092,-166.1 148.1092,-166.1 148.1092,-66.9 94.1092,-66.9"/>
<text text-anchor="middle" x="121.1092" y="-149.5" font-family="Times,serif" font-size="14.00" fill="#000000">26</text>
<polyline fill="none" stroke="#000000" points="94.1092,-141.3 148.1092,-141.3 "/>
<text text-anchor="middle" x="121.1092" y="-124.7" font-family="Times,serif" font-size="14.00" fill="#000000">27</text>
<polyline fill="none" stroke="#000000" points="94.1092,-116.5 148.1092,-116.5 "/>
<text text-anchor="middle" x="121.1092" y="-99.9" font-family="Times,serif" font-size="14.00" fill="#000000">28</text>
<polyline fill="none" stroke="#000000" points="94.1092,-91.7 148.1092,-91.7 "/>
<text text-anchor="middle" x="121.1092" y="-75.1" font-family="Times,serif" font-size="14.00" fill="#000000">29</text>
</g>
<!-- value_2_v_0 -->
<g id="node7" class="node">
<title>value_2_v_0</title>
<polygon fill="none" stroke="#000000" points="184.1092,-165.5 184.1092,-201.5 404.1886,-201.5 404.1886,-165.5 184.1092,-165.5"/>
<text text-anchor="middle" x="294.1489" y="-179.4" font-family="Times,serif" font-size="14.00" fill="#000000">[_AAAAAAAAAAAAAAAAAA...</text>
</g>
<!-- node_2&#45;&gt;value_2_v_0 -->
<g id="edge5" class="edge">
<title>node_2:v_0-&gt;value_2_v_0</title>
<path fill="none" stroke="#000000" d="M148.1092,-153.5C173.1354,-153.5 200.0895,-157.7794 223.9454,-163.1056"/>
<polygon fill="#000000" stroke="#000000" points="223.4313,-166.5796 233.965,-165.443 225.0216,-159.7627 223.4313,-166.5796"/>
</g>
<!-- value_2_v_1 -->
<g id="node8" class="node">
<title>value_2_v_1</title>
<polygon fill="none" stroke="#000000" points="267.1489,-110.5 267.1489,-146.5 321.1489,-146.5 321.1489,-110.5 267.1489,-110.5"/>
<text text-anchor="middle" x="294.1489" y="-124.4" font-family="Times,serif" font-size="14.00" fill="#000000">[_A_]</text>
</g>
<!-- node_2&#45;&gt;value_2_v_1 -->
<g id="edge6" class="edge">
<title>node_2:v_1-&gt;value_2_v_1</title>
<path fill="none" stroke="#000000" d="M148.1092,-128.5C185.0291,-128.5 227.1993,-128.5 256.7012,-128.5"/>
<polygon fill="#000000" stroke="#000000" points="256.9641,-132.0001 266.964,-128.5 256.964,-125.0001 256.9641,-132.0001"/>
</g>
<!-- value_2_v_2 -->
<g id="node9" class="node">
<title>value_2_v_2</title>
<polygon fill="none" stroke="#000000" points="184.1092,-55.5 184.1092,-91.5 404.1886,-91.5 404.1886,-55.5 184.1092,-55.5"/>
<text text-anchor="middle" x="294.1489" y="-69.4" font-family="Times,serif" font-size="14.00" fill="#000000">[_AAAAAAAAAAAAAAAAAA...</text>
</g>
<!-- node_2&#45;&gt;value_2_v_2 -->
<g id="edge7" class="edge">
<title>node_2:v_2-&gt;value_2_v_2</title>
<path fill="none" stroke="#000000" d="M148.1092,-104.5C161.2095,-104.5 186.7345,-99.6665 212.8294,-93.8166"/>
<polygon fill="#000000" stroke="#000000" points="213.8636,-97.1707 222.8338,-91.5328 212.3056,-90.3463 213.8636,-97.1707"/>
</g>
<!-- value_2_v_3 -->
<g id="node10" class="node">
<title>value_2_v_3</title>
<polygon fill="none" stroke="#000000" points="219.1372,-.5 219.1372,-36.5 369.1606,-36.5 369.1606,-.5 219.1372,-.5"/>
<text text-anchor="middle" x="294.1489" y="-14.4" font-family="Times,serif" font-size="14.00" fill="#000000">[_aaaaaaaaaaaaaaaaaa...</text>
</g>
<!-- node_2&#45;&gt;value_2_v_3 -->
<g id="edge8" class="edge">
<title>node_2:v_3-&gt;value_2_v_3</title>
<path fill="none" stroke="#000000" d="M148.1092,-79.5C170.1171,-79.5 164.782,-56.0265 184.1092,-45.5 192.038,-41.1816 200.661,-37.5438 209.4743,-34.4813"/>
<polygon fill="#000000" stroke="#000000" points="210.6465,-37.7808 219.0885,-31.379 208.4969,-31.119 210.6465,-37.7808"/>
</g>
<!-- node_3 -->
<g id="node11" class="node">
<title>node_3</title>
<polygon fill="none" stroke="#000000" points="0,-343.7 0,-517.3 58.1092,-517.3 58.1092,-343.7 0,-343.7"/>
<text text-anchor="middle" x="29.0546" y="-500.7" font-family="Times,serif" font-size="14.00" fill="#000000">.</text>
<polyline fill="none" stroke="#000000" points="0,-492.5 58.1092,-492.5 "/>
<text text-anchor="middle" x="29.0546" y="-475.9" font-family="Times,serif" font-size="14.00" fill="#000000">key=10</text>
<polyline fill="none" stroke="#000000" points="0,-467.7 58.1092,-467.7 "/>
<text text-anchor="middle" x="29.0546" y="-451.1" font-family="Times,serif" font-size="14.00" fill="#000000">.</text>
<polyline fill="none" stroke="#000000" points="0,-442.9 58.1092,-442.9 "/>
<text text-anchor="middle" x="29.0546" y="-426.3" font-family="Times,serif" font-size="14.00" fill="#000000">key=20</text>
<polyline fill="none" stroke="#000000" points="0,-418.1 58.1092,-418.1 "/>
<text text-anchor="middle" x="29.0546" y="-401.5" font-family="Times,serif" font-size="14.00" fill="#000000">.</text>
<polyline fill="none" stroke="#000000" points="0,-393.3 58.1092,-393.3 "/>
<text text-anchor="middle" x="29.0546" y="-376.7" font-family="Times,serif" font-size="14.00" fill="#000000">key=26</text>
<polyline fill="none" stroke="#000000" points="0,-368.5 58.1092,-368.5 "/>
<text text-anchor="middle" x="29.0546" y="-351.9" font-family="Times,serif" font-size="14.00" fill="#000000">.</text>
</g>
<!-- node_3&#45;&gt;node_1 -->
<g id="edge9" class="edge">
<title>node_3:e_0-&gt;node_1</title>
<path fill="none" stroke="#000000" d="M29.0546,-517.5C29.0546,-583.1326 62.259,-652.1696 88.7836,-696.8478"/>
<polygon fill="#000000" stroke="#000000" points="85.817,-698.7057 93.9877,-705.4504 91.8063,-695.0825 85.817,-698.7057"/>
</g>
<!-- node_3&#45;&gt;node_2 -->
<g id="edge12" class="edge">
<title>node_3:e_3-&gt;node_2</title>
<path fill="none" stroke="#000000" d="M29.0546,-343.5C29.0546,-278.1148 62.259,-209.3888 88.7836,-164.9195"/>
<polygon fill="#000000" stroke="#000000" points="91.7847,-166.7205 93.9877,-156.3573 85.8029,-163.0848 91.7847,-166.7205"/>
</g>
<!-- node_5 -->
<g id="node12" class="node">
<title>node_5</title>
<polygon fill="none" stroke="#000000" points="94.1092,-475.9 94.1092,-575.1 148.1092,-575.1 148.1092,-475.9 94.1092,-475.9"/>
<text text-anchor="middle" x="121.1092" y="-558.5" font-family="Times,serif" font-size="14.00" fill="#000000">10</text>
<polyline fill="none" stroke="#000000" points="94.1092,-550.3 148.1092,-550.3 "/>
<text text-anchor="middle" x="121.1092" y="-533.7" font-family="Times,serif" font-size="14.00" fill="#000000">11</text>
<polyline fill="none" stroke="#000000" points="94.1092,-525.5 148.1092,-525.5 "/>
<text text-anchor="middle" x="121.1092" y="-508.9" font-family="Times,serif" font-size="14.00" fill="#000000">12</text>
<polyline fill="none" stroke="#000000" points="94.1092,-500.7 148.1092,-500.7 "/>
<text text-anchor="middle" x="121.1092" y="-484.1" font-family="Times,serif" font-size="14.00" fill="#000000">13</text>
</g>
<!-- node_3&#45;&gt;node_5 -->
<g id="edge10" class="edge">
<title>node_3:e_1-&gt;node_5</title>
<path fill="none" stroke="#000000" d="M58.0546,-455.5C69.5666,-455.5 79.5147,-460.7912 87.8887,-468.4641"/>
<polygon fill="#000000" stroke="#000000" points="85.405,-470.9311 94.8422,-475.7469 90.468,-466.0972 85.405,-470.9311"/>
</g>
<!-- node_4 -->
<g id="node13" class="node">
<title>node_4</title>
<polygon fill="none" stroke="#000000" points="94.1092,-286.9 94.1092,-386.1 148.1092,-386.1 148.1092,-286.9 94.1092,-286.9"/>
<text text-anchor="middle" x="121.1092" y="-369.5" font-family="Times,serif" font-size="14.00" fill="#000000">20</text>
<polyline fill="none" stroke="#000000" points="94.1092,-361.3 148.1092,-361.3 "/>
<text text-anchor="middle" x="121.1092" y="-344.7" font-family="Times,serif" font-size="14.00" fill="#000000">22</text>
<polyline fill="none" stroke="#000000" points="94.1092,-336.5 148.1092,-336.5 "/>
<text text-anchor="middle" x="121.1092" y="-319.9" font-family="Times,serif" font-size="14.00" fill="#000000">23</text>
<polyline fill="none" stroke="#000000" points="94.1092,-311.7 148.1092,-311.7 "/>
<text text-anchor="middle" x="121.1092" y="-295.1" font-family="Times,serif" font-size="14.00" fill="#000000">24</text>
</g>
<!-- node_3&#45;&gt;node_4 -->
<g id="edge11" class="edge">
<title>node_3:e_2-&gt;node_4</title>
<path fill="none" stroke="#000000" d="M58.0546,-405.5C69.1122,-405.5 78.7507,-400.6114 86.942,-393.4367"/>
<polygon fill="#000000" stroke="#000000" points="89.489,-395.8391 94.0571,-386.2797 84.5247,-390.904 89.489,-395.8391"/>
</g>
<!-- value_5_v_0 -->
<g id="node18" class="node">
<title>value_5_v_0</title>
<polygon fill="none" stroke="#000000" points="184.1092,-605.5 184.1092,-641.5 404.1886,-641.5 404.1886,-605.5 184.1092,-605.5"/>
<text text-anchor="middle" x="294.1489" y="-619.4" font-family="Times,serif" font-size="14.00" fill="#000000">[_AAAAAAAAAAAAAAAAAA...</text>
</g>
<!-- node_5&#45;&gt;value_5_v_0 -->
<g id="edge17" class="edge">
<title>node_5:v_0-&gt;value_5_v_0</title>
<path fill="none" stroke="#000000" d="M148.1092,-562.5C170.1171,-562.5 164.782,-585.9735 184.1092,-596.5 187.413,-598.2994 190.8373,-599.9806 194.3457,-601.5513"/>
<polygon fill="#000000" stroke="#000000" points="193.225,-604.8751 203.8039,-605.456 195.8962,-598.4048 193.225,-604.8751"/>
</g>
<!-- value_5_v_1 -->
<g id="node19" class="node">
<title>value_5_v_1</title>
<polygon fill="none" stroke="#000000" points="184.1092,-550.5 184.1092,-586.5 404.1886,-586.5 404.1886,-550.5 184.1092,-550.5"/>
<text text-anchor="middle" x="294.1489" y="-564.4" font-family="Times,serif" font-size="14.00" fill="#000000">[_AAAAAAAAAAAAAAAAAA...</text>
</g>
<!-- node_5&#45;&gt;value_5_v_1 -->
<g id="edge18" class="edge">
<title>node_5:v_1-&gt;value_5_v_1</title>
<path fill="none" stroke="#000000" d="M148.1092,-537.5C161.2095,-537.5 186.7345,-542.3335 212.8294,-548.1834"/>
<polygon fill="#000000" stroke="#000000" points="212.3056,-551.6537 222.8338,-550.4672 213.8636,-544.8293 212.3056,-551.6537"/>
</g>
<!-- value_5_v_2 -->
<g id="node20" class="node">
<title>value_5_v_2</title>
<polygon fill="none" stroke="#000000" points="219.1372,-495.5 219.1372,-531.5 369.1606,-531.5 369.1606,-495.5 219.1372,-495.5"/>
<text text-anchor="middle" x="294.1489" y="-509.4" font-family="Times,serif" font-size="14.00" fill="#000000">[_aaaaaaaaaaaaaaaaaa...</text>
</g>
<!-- node_5&#45;&gt;value_5_v_2 -->
<g id="edge19" class="edge">
<title>node_5:v_2-&gt;value_5_v_2</title>
<path fill="none" stroke="#000000" d="M148.1092,-513.5C167.8468,-513.5 189.0849,-513.5 209.0857,-513.5"/>
<polygon fill="#000000" stroke="#000000" points="209.104,-517.0001 219.104,-513.5 209.1039,-510.0001 209.104,-517.0001"/>
</g>
<!-- value_5_v_3 -->
<g id="node21" class="node">
<title>value_5_v_3</title>
<polygon fill="none" stroke="#000000" points="267.1489,-440.5 267.1489,-476.5 321.1489,-476.5 321.1489,-440.5 267.1489,-440.5"/>
<text text-anchor="middle" x="294.1489" y="-454.4" font-family="Times,serif" font-size="14.00" fill="#000000">[_a_]</text>
</g>
<!-- node_5&#45;&gt;value_5_v_3 -->
<g id="edge20" class="edge">
<title>node_5:v_3-&gt;value_5_v_3</title>
<path fill="none" stroke="#000000" d="M148.1092,-488.5C185.8496,-488.5 227.9747,-478.7679 257.2466,-470.3898"/>
<polygon fill="#000000" stroke="#000000" points="258.4356,-473.6882 267.0361,-467.501 256.4544,-466.9744 258.4356,-473.6882"/>
</g>
<!-- value_4_v_0 -->
<g id="node14" class="node">
<title>value_4_v_0</title>
<polygon fill="none" stroke="#000000" points="219.1372,-385.5 219.1372,-421.5 369.1606,-421.5 369.1606,-385.5 219.1372,-385.5"/>
<text text-anchor="middle" x="294.1489" y="-399.4" font-family="Times,serif" font-size="14.00" fill="#000000">[_aaaaaaaaaaaaaaaaaa...</text>
</g>
<!-- node_4&#45;&gt;value_4_v_0 -->
<g id="edge13" class="edge">
<title>node_4:v_0-&gt;value_4_v_0</title>
<path fill="none" stroke="#000000" d="M148.1092,-373.5C160.734,-373.5 184.9429,-377.8562 210.0744,-383.2486"/>
<polygon fill="#000000" stroke="#000000" points="209.5893,-386.7251 220.1063,-385.443 211.0852,-379.8868 209.5893,-386.7251"/>
</g>
<!-- value_4_v_1 -->
<g id="node15" class="node">
<title>value_4_v_1</title>
<polygon fill="none" stroke="#000000" points="184.1092,-330.5 184.1092,-366.5 404.1886,-366.5 404.1886,-330.5 184.1092,-330.5"/>
<text text-anchor="middle" x="294.1489" y="-344.4" font-family="Times,serif" font-size="14.00" fill="#000000">[_AAAAAAAAAAAAAAAAAA...</text>
</g>
<!-- node_4&#45;&gt;value_4_v_1 -->
<g id="edge14" class="edge">
<title>node_4:v_1-&gt;value_4_v_1</title>
<path fill="none" stroke="#000000" d="M148.1092,-348.5C156.4919,-348.5 165.1453,-348.5 173.8596,-348.5"/>
<polygon fill="#000000" stroke="#000000" points="174.1048,-352.0001 184.1048,-348.5 174.1048,-345.0001 174.1048,-352.0001"/>
</g>
<!-- value_4_v_2 -->
<g id="node16" class="node">
<title>value_4_v_2</title>
<polygon fill="none" stroke="#000000" points="219.1372,-275.5 219.1372,-311.5 369.1606,-311.5 369.1606,-275.5 219.1372,-275.5"/>
<text text-anchor="middle" x="294.1489" y="-289.4" font-family="Times,serif" font-size="14.00" fill="#000000">[_aaaaaaaaaaaaaaaaaa...</text>
</g>
<!-- node_4&#45;&gt;value_4_v_2 -->
<g id="edge15" class="edge">
<title>node_4:v_2-&gt;value_4_v_2</title>
<path fill="none" stroke="#000000" d="M148.1092,-324.5C161.2095,-324.5 186.7345,-319.6665 212.8294,-313.8166"/>
<polygon fill="#000000" stroke="#000000" points="213.8636,-317.1707 222.8338,-311.5328 212.3056,-310.3463 213.8636,-317.1707"/>
</g>
<!-- value_4_v_3 -->
<g id="node17" class="node">
<title>value_4_v_3</title>
<polygon fill="none" stroke="#000000" points="184.1092,-220.5 184.1092,-256.5 404.1886,-256.5 404.1886,-220.5 184.1092,-220.5"/>
<text text-anchor="middle" x="294.1489" y="-234.4" font-family="Times,serif" font-size="14.00" fill="#000000">[_AAAAAAAAAAAAAAAAAA...</text>
</g>
<!-- node_4&#45;&gt;value_4_v_3 -->
<g id="edge16" class="edge">
<title>node_4:v_3-&gt;value_4_v_3</title>
<path fill="none" stroke="#000000" d="M148.1092,-299.5C169.8143,-299.5 165.0151,-276.8212 184.1092,-266.5 188.2793,-264.2459 192.6369,-262.1682 197.11,-260.2536"/>
<polygon fill="#000000" stroke="#000000" points="198.4308,-263.495 206.4307,-256.5487 195.8451,-256.9901 198.4308,-263.495"/>
</g>
</g>
</svg>